<svg width="46" height="46" viewBox="0 0 46 46" fill="none" xmlns="http://www.w3.org/2000/svg">
<path d="M41.1377 11.4994C41.0854 11.4994 41.0854 11.4994 41.0331 11.4994H4.96721C4.1309 11.4471 3.4514 12.1266 3.39913 12.963C3.39913 13.0152 3.39913 13.0152 3.39913 13.0675V44.4292C3.34686 45.2655 4.02636 45.945 4.86267 45.9973C4.91494 45.9973 4.91494 45.9973 4.96721 45.9973H41.0331C41.8695 46.0495 42.549 45.37 42.6012 44.5337C42.6012 44.4814 42.6012 44.4815 42.6012 44.4292V13.0675C42.6535 12.2312 41.974 11.5517 41.1377 11.4994ZM30.8406 25.769C30.7883 25.769 30.7883 25.769 30.7361 25.769H15.2643C14.428 25.8212 13.7485 25.1417 13.6962 24.3054C13.6962 24.2532 13.6962 24.2532 13.6962 24.2009V20.2284C13.6439 19.3921 14.3234 18.7126 15.1598 18.6603C15.212 18.6603 15.212 18.6603 15.2643 18.6603H30.7361C31.5724 18.6081 32.2519 19.2876 32.3041 20.1239C32.3041 20.1761 32.3041 20.1761 32.3041 20.2284V24.2009C32.3564 25.0372 31.6769 25.7167 30.8406 25.769Z" fill="#FFDA15"/>
<path d="M39.9875 5.74976H6.01236V8.88592H39.9875V5.74976Z" fill="#FFDA15"/>
<path d="M37.3739 0H8.62573V3.13617H37.3739V0Z" fill="#FFDA15"/>
</svg>
