<svg xmlns="http://www.w3.org/2000/svg" width="24" height="24" viewBox="0 0 24 24" fill="none" stroke="#FFDA15" stroke-width="2" stroke-linecap="round" stroke-linejoin="round" class="lucide lucide-file-image">
<path d="M15 2H6a2 2 0 0 0-2 2v16a2 2 0 0 0 2 2h12a2 2 0 0 0 2-2V7Z" />
<path d="M14 2v4a2 2 0 0 0 2 2h4" stroke="#FFDA15"  />
<circle cx="10" cy="12" r="2" stroke="#FFDA15" fill="#FFDA15" />
<path d="m20 17-1.296-1.296a2.41 2.41 0 0 0-3.408 0L9 22" stroke="#FFDA15" fill="#FFDA15" />
<path d="M20 21.5 8 21.5 20 16" stroke="#FFDA15" fill="#FFDA15" />
</svg>