<svg width="218" height="188" viewBox="0 0 218 188" fill="none" xmlns="http://www.w3.org/2000/svg">
<g opacity="0.15">
<path d="M70.7033 186.568H68.0679C67.7359 186.568 67.4665 186.299 67.4665 185.967C67.4665 185.635 67.7359 185.365 68.0679 185.365H70.7033C71.9085 185.365 72.8876 184.385 72.8876 183.18V153.343C72.8876 152.139 71.9085 151.159 70.7033 151.159H53.8587C53.0997 151.159 52.4116 151.537 52.0183 152.168L48.1404 158.034C47.9575 158.311 47.5834 158.387 47.308 158.204C47.0301 158.021 46.9544 157.648 47.1372 157.37L51.0055 151.519C51.6118 150.545 52.6799 149.956 53.8587 149.956H70.7033C72.5713 149.956 74.0905 151.476 74.0905 153.343V183.18C74.0905 185.048 72.5713 186.568 70.7033 186.568" fill="white"/>
<path d="M21.9074 156.077H1.65993C0.744566 156.077 0 155.332 0 154.416V138.803C0 137.888 0.744566 137.143 1.65993 137.143H13.1663C13.7353 137.143 14.2765 137.444 14.576 137.926L16.6161 141.205C16.6991 141.34 16.8446 141.422 17.0046 141.422H24.1639C25.0805 141.422 25.825 142.166 25.825 143.083V151.828C25.825 152.16 25.5568 152.429 25.2236 152.429C24.8916 152.429 24.6222 152.16 24.6222 151.828V143.083C24.6222 142.83 24.4165 142.625 24.1639 142.625H17.0046C16.4284 142.625 15.9004 142.332 15.5949 141.842L13.5536 138.561C13.4718 138.428 13.3227 138.346 13.1663 138.346H1.65993C1.40733 138.346 1.20284 138.551 1.20284 138.803V154.416C1.20284 154.669 1.40733 154.874 1.65993 154.874H21.9074C22.2406 154.874 22.5088 155.143 22.5088 155.476C22.5088 155.808 22.2406 156.077 21.9074 156.077" fill="white"/>
<path d="M12.9125 171.877C12.5805 171.877 12.311 171.607 12.311 171.275V155.839C12.311 155.506 12.5805 155.238 12.9125 155.238C13.2444 155.238 13.5139 155.506 13.5139 155.839V171.275C13.5139 171.607 13.2444 171.877 12.9125 171.877Z" fill="white"/>
<path d="M22.5519 175.275H16.3104C15.9784 175.275 15.709 175.005 15.709 174.673C15.709 174.34 15.9784 174.072 16.3104 174.072H22.5519C22.8839 174.072 23.1534 174.34 23.1534 174.673C23.1534 175.005 22.8839 175.275 22.5519 175.275Z" fill="white"/>
<path d="M12.9125 171.877C11.3705 171.877 10.1159 173.13 10.1159 174.673C10.1159 176.214 11.3705 177.469 12.9125 177.469C14.4546 177.469 15.7092 176.214 15.7092 174.673C15.7092 173.13 14.4546 171.877 12.9125 171.877ZM12.9125 178.671C10.7065 178.671 8.91309 176.878 8.91309 174.673C8.91309 172.467 10.7065 170.674 12.9125 170.674C15.1186 170.674 16.912 172.467 16.912 174.673C16.912 176.878 15.1186 178.671 12.9125 178.671Z" fill="white"/>
<path d="M25.3367 152.429C24.1327 152.429 23.1535 153.408 23.1535 154.612V184.45C23.1535 185.654 24.1327 186.634 25.3367 186.634H65.7342C66.9394 186.634 67.9185 185.654 67.9185 184.45V162.196C67.9185 160.992 66.9394 160.012 65.7342 160.012H49.1915C48.6598 160.012 48.1679 159.734 47.878 159.268L44.0469 153.473C43.6367 152.814 42.9439 152.429 42.1825 152.429H25.3367ZM65.7342 187.837H25.3367C23.4687 187.837 21.9507 186.317 21.9507 184.45V154.612C21.9507 152.745 23.4687 151.226 25.3367 151.226H42.1825C43.3613 151.226 44.4378 151.823 45.0585 152.825L48.8908 158.619C48.9497 158.713 49.0411 158.809 49.1915 158.809H65.7342C67.6022 158.809 69.1214 160.328 69.1214 162.196V184.45C69.1214 186.317 67.6022 187.837 65.7342 187.837" fill="white"/>
<path d="M62.4037 173.736H51.1439C50.8119 173.736 50.5425 173.468 50.5425 173.135C50.5425 172.803 50.8119 172.533 51.1439 172.533H62.4037C62.7369 172.533 63.0052 172.803 63.0052 173.135C63.0052 173.468 62.7369 173.736 62.4037 173.736Z" fill="white"/>
<path d="M62.4037 177.51H51.1439C50.8119 177.51 50.5425 177.24 50.5425 176.908C50.5425 176.575 50.8119 176.307 51.1439 176.307H62.4037C62.7369 176.307 63.0052 176.575 63.0052 176.908C63.0052 177.24 62.7369 177.51 62.4037 177.51Z" fill="white"/>
<path d="M54.975 181.282H51.1439C50.8119 181.282 50.5425 181.013 50.5425 180.68C50.5425 180.348 50.8119 180.079 51.1439 180.079H54.975C55.307 180.079 55.5764 180.348 55.5764 180.68C55.5764 181.013 55.307 181.282 54.975 181.282Z" fill="white"/>
<path d="M45.8222 171.766C45.0668 171.766 44.4533 172.381 44.4533 173.135C44.4533 173.89 45.0668 174.505 45.8222 174.505C46.5763 174.505 47.191 173.89 47.191 173.135C47.191 172.381 46.5763 171.766 45.8222 171.766ZM45.8222 175.708C44.404 175.708 43.2505 174.554 43.2505 173.135C43.2505 171.717 44.404 170.563 45.8222 170.563C47.2403 170.563 48.3938 171.717 48.3938 173.135C48.3938 174.554 47.2403 175.708 45.8222 175.708Z" fill="white"/>
<path d="M80.959 5.24316C80.9578 5.24557 80.9554 5.24918 80.9542 5.25159L80.959 5.24316ZM74.7463 6.34977C74.4829 6.34977 74.2688 6.5639 74.2688 6.82733V15.4457C74.2688 15.7091 74.4829 15.9244 74.7463 15.9244H90.3929C90.6563 15.9244 90.8692 15.7091 90.8692 15.4457V3.88996C90.8692 3.62654 90.6563 3.41244 90.3929 3.41244H83.8675C83.6991 3.41244 83.5511 3.49425 83.4621 3.63738L81.9658 5.90232C81.7937 6.17777 81.487 6.34977 81.1526 6.34977H74.7463ZM90.3929 17.1273H74.7463C73.8201 17.1273 73.0659 16.3731 73.0659 15.4457V6.82733C73.0659 5.89993 73.8201 5.14693 74.7463 5.14693H81.0239L82.4493 2.98783C82.7488 2.50669 83.2829 2.20959 83.8675 2.20959H90.3929C91.3191 2.20959 92.072 2.96377 92.072 3.88996V15.4457C92.072 16.3731 91.3191 17.1273 90.3929 17.1273" fill="white"/>
<path d="M62.4131 71.972H30.1961C25.0395 71.972 20.8452 67.7765 20.8452 62.6199C20.8452 58.8779 23.1053 55.4787 26.5178 54.016C26.43 53.245 26.3855 52.4764 26.3855 51.7234C26.3855 40.5646 35.4682 31.4856 46.633 31.4856C53.4952 31.4856 59.7873 34.8848 63.5461 40.6019C64.3629 40.4648 65.2 40.3938 66.0372 40.3938C72.5915 40.3938 78.394 44.6567 80.3811 50.8405C81.5719 50.3967 82.8325 50.1717 84.1352 50.1717C87.1976 50.1717 90.1362 51.472 92.2003 53.7393L91.3102 54.5489C89.4746 52.5317 86.8584 51.3746 84.1352 51.3746C82.77 51.3746 81.4589 51.6512 80.2392 52.1973L79.5969 52.486L79.4128 51.8076C77.7782 45.7958 72.2776 41.5966 66.0372 41.5966C65.1387 41.5966 64.2438 41.6845 63.3754 41.8565L62.9688 41.9371L62.7486 41.587C59.24 36.0155 53.2161 32.6884 46.633 32.6884C36.1321 32.6884 27.5884 41.2274 27.5884 51.7234C27.5884 52.575 27.6497 53.4483 27.7688 54.3191L27.8349 54.7978L27.3815 54.9663C24.1915 56.1426 22.0481 59.2183 22.0481 62.6199C22.0481 67.1138 25.7035 70.7692 30.1961 70.7692H62.4131V71.972" fill="white"/>
<path d="M101.211 128.631H100.008V114.354H101.211V128.631Z" fill="white"/>
<path d="M113.779 135.427H107.765C107.433 135.427 107.164 135.159 107.164 134.825C107.164 134.493 107.433 134.224 107.765 134.224H113.779C114.112 134.224 114.381 134.493 114.381 134.825C114.381 135.159 114.112 135.427 113.779 135.427ZM125.808 135.427H119.793C119.461 135.427 119.192 135.159 119.192 134.825C119.192 134.493 119.461 134.224 119.793 134.224H125.808C126.141 134.224 126.409 134.493 126.409 134.825C126.409 135.159 126.141 135.427 125.808 135.427ZM137.836 135.427H131.822C131.49 135.427 131.22 135.159 131.22 134.825C131.22 134.493 131.49 134.224 131.822 134.224H137.836C138.169 134.224 138.437 134.493 138.437 134.825C138.437 135.159 138.169 135.427 137.836 135.427ZM149.865 135.427H143.85C143.518 135.427 143.249 135.159 143.249 134.825C143.249 134.493 143.518 134.224 143.85 134.224H149.865C150.198 134.224 150.466 134.493 150.466 134.825C150.466 135.159 150.198 135.427 149.865 135.427Z" fill="white"/>
<path d="M56.4049 135.427H50.3906C50.0587 135.427 49.7892 135.159 49.7892 134.825C49.7892 134.493 50.0587 134.224 50.3906 134.224H56.4049C56.7368 134.224 57.0063 134.493 57.0063 134.825C57.0063 135.159 56.7368 135.427 56.4049 135.427ZM68.4333 135.427H62.4191C62.0871 135.427 61.8176 135.159 61.8176 134.825C61.8176 134.493 62.0871 134.224 62.4191 134.224H68.4333C68.7653 134.224 69.0347 134.493 69.0347 134.825C69.0347 135.159 68.7653 135.427 68.4333 135.427ZM80.4617 135.427H74.4475C74.1155 135.427 73.8461 135.159 73.8461 134.825C73.8461 134.493 74.1155 134.224 74.4475 134.224H80.4617C80.7937 134.224 81.0631 134.493 81.0631 134.825C81.0631 135.159 80.7937 135.427 80.4617 135.427ZM92.4902 135.427H86.4759C86.1439 135.427 85.8745 135.159 85.8745 134.825C85.8745 134.493 86.1439 134.224 86.4759 134.224H92.4902C92.8221 134.224 93.0916 134.493 93.0916 134.825C93.0916 135.159 92.8221 135.427 92.4902 135.427ZM50.2054 147.27C49.8722 147.27 49.604 147.001 49.604 146.669V140.654C49.604 140.322 49.8722 140.053 50.2054 140.053C50.5374 140.053 50.8068 140.322 50.8068 140.654V146.669C50.8068 147.001 50.5374 147.27 50.2054 147.27Z" fill="white"/>
<path d="M100.608 128.994C96.9939 128.994 94.0529 131.935 94.0529 135.55C94.0529 139.165 96.9939 142.106 100.608 142.106C104.223 142.106 107.164 139.165 107.164 135.55C107.164 131.935 104.223 128.994 100.608 128.994ZM100.608 143.309C96.3299 143.309 92.8501 139.828 92.8501 135.55C92.8501 131.271 96.3299 127.791 100.608 127.791C104.887 127.791 108.367 131.271 108.367 135.55C108.367 139.828 104.887 143.309 100.608 143.309Z" fill="white"/>
<path d="M56.8622 72.7311C45.553 72.7311 36.3513 81.9328 36.3513 93.242C36.3513 104.551 45.553 113.753 56.8622 113.753H146.941C156.823 113.753 164.865 105.712 164.865 95.8281C164.865 89.4326 161.411 83.47 155.849 80.2669L155.527 80.0805L155.549 79.71C155.59 79.0123 155.612 78.3171 155.612 77.6327C155.612 57.7232 139.408 41.5269 119.491 41.5269C108.011 41.5269 97.1201 47.0492 90.3565 56.2966L90.1533 56.5757L89.8116 56.5408C88.9095 56.4518 87.9917 56.4061 87.086 56.4061C76.1714 56.4061 66.2937 62.8617 61.9189 72.855L61.7217 73.306L61.2405 73.2014C59.8152 72.8898 58.3417 72.7311 56.8622 72.7311V72.7311ZM146.941 114.956H56.8622C44.8891 114.956 35.1484 105.214 35.1484 93.242C35.1484 81.2689 44.8891 71.5282 56.8622 71.5282C58.2635 71.5282 59.6588 71.663 61.0168 71.9264C65.6778 61.7503 75.8563 55.2032 87.086 55.2032C87.9172 55.2032 88.758 55.2393 89.5891 55.3127C96.5909 45.9209 107.744 40.3241 119.491 40.3241C140.071 40.3241 156.815 57.0604 156.815 77.6327C156.815 78.2196 156.799 78.8151 156.77 79.4129C162.515 82.8723 166.068 89.1282 166.068 95.8281C166.068 106.375 157.487 114.956 146.941 114.956" fill="white"/>
<path d="M100.608 69.9789C100.497 69.9789 100.393 70.0271 100.322 70.1101L88.0083 84.5189C87.9109 84.6308 87.8905 84.7884 87.9518 84.9207C88.0119 85.053 88.1467 85.1396 88.2934 85.1396H95.8112C96.1432 85.1396 96.4126 85.409 96.4126 85.741V99.5184C96.4126 99.7253 96.581 99.8949 96.7891 99.8949H104.428C104.635 99.8949 104.804 99.7253 104.804 99.5184V85.741C104.804 85.409 105.073 85.1396 105.405 85.1396H112.922C113.068 85.1396 113.204 85.053 113.266 84.9207C113.326 84.7884 113.304 84.6296 113.209 84.5189L100.893 70.1101C100.822 70.0259 100.719 69.9789 100.608 69.9789V69.9789ZM104.428 101.098H96.7891C95.9182 101.098 95.2098 100.389 95.2098 99.5184V86.3424H88.2934C87.68 86.3424 87.1158 85.9828 86.8584 85.4247C86.601 84.8641 86.6936 84.2026 87.0954 83.7359L99.4077 69.3294C100.01 68.6245 101.211 68.627 101.809 69.3306L114.122 83.7371C114.521 84.2026 114.614 84.8641 114.359 85.4235C114.1 85.9828 113.536 86.3424 112.922 86.3424H106.006V99.5184C106.006 100.389 105.299 101.098 104.428 101.098Z" fill="white"/>
<path d="M139.175 144.506H133.161C132.827 144.506 132.559 144.237 132.559 143.905C132.559 143.571 132.827 143.303 133.161 143.303H139.175C139.507 143.303 139.776 143.571 139.776 143.905C139.776 144.237 139.507 144.506 139.175 144.506ZM151.203 144.506H145.189C144.856 144.506 144.588 144.237 144.588 143.905C144.588 143.571 144.856 143.303 145.189 143.303H151.203C151.535 143.303 151.805 143.571 151.805 143.905C151.805 144.237 151.535 144.506 151.203 144.506ZM163.232 144.506H157.217C156.884 144.506 156.616 144.237 156.616 143.905C156.616 143.571 156.884 143.303 157.217 143.303H163.232C163.564 143.303 163.833 143.571 163.833 143.905C163.833 144.237 163.564 144.506 163.232 144.506Z" fill="white"/>
<path d="M23.56 124.168H17.5458C17.2138 124.168 16.9443 123.9 16.9443 123.567C16.9443 123.235 17.2138 122.965 17.5458 122.965H23.56C23.8932 122.965 24.1614 123.235 24.1614 123.567C24.1614 123.9 23.8932 124.168 23.56 124.168ZM35.5884 124.168H29.5742C29.2422 124.168 28.9728 123.9 28.9728 123.567C28.9728 123.235 29.2422 122.965 29.5742 122.965H35.5884C35.9216 122.965 36.1898 123.235 36.1898 123.567C36.1898 123.9 35.9216 124.168 35.5884 124.168ZM47.6168 124.168H41.6026C41.2706 124.168 41.0012 123.9 41.0012 123.567C41.0012 123.235 41.2706 122.965 41.6026 122.965H47.6168C47.95 122.965 48.2183 123.235 48.2183 123.567C48.2183 123.9 47.95 124.168 47.6168 124.168Z" fill="white"/>
<path d="M167.974 37.0667C165.061 37.0667 162.693 39.4351 162.693 42.346C162.693 45.2581 165.061 47.6265 167.974 47.6265H193.067C195.582 47.6265 197.627 45.5817 197.627 43.0677C197.627 41.4403 196.748 39.9235 195.332 39.1068C195.135 38.9937 195.018 38.7784 195.033 38.5511C195.044 38.3658 195.05 38.1806 195.05 37.9977C195.05 32.6908 190.73 28.3738 185.421 28.3738C182.361 28.3738 179.457 29.8449 177.654 32.3107C177.528 32.4827 177.323 32.5777 177.109 32.5537C174.019 32.2445 171.024 33.9971 169.779 36.8406C169.664 37.1028 169.387 37.2508 169.099 37.187C168.734 37.1076 168.355 37.0667 167.974 37.0667V37.0667ZM193.067 48.8293H167.974C164.399 48.8293 161.49 45.9209 161.49 42.346C161.49 38.7724 164.399 35.8639 167.974 35.8639C168.279 35.8639 168.582 35.8855 168.88 35.9264C170.384 32.965 173.538 31.1211 176.888 31.3304C178.927 28.719 182.091 27.1709 185.421 27.1709C191.393 27.1709 196.252 32.028 196.252 37.9977C196.252 38.0843 196.251 38.1733 196.249 38.2612C197.85 39.3269 198.83 41.1359 198.83 43.0677C198.83 46.2444 196.245 48.8293 193.067 48.8293" fill="white"/>
<path d="M201.88 54.6632H167.094C166.761 54.6632 166.493 54.3938 166.493 54.0618C166.493 53.7298 166.761 53.4604 167.094 53.4604H201.88C202.214 53.4604 202.482 53.7298 202.482 54.0618C202.482 54.3938 202.214 54.6632 201.88 54.6632Z" fill="white"/>
<path d="M191.41 119.787C191.291 119.787 191.17 119.753 191.066 119.679L185.638 115.89C185.365 115.7 185.298 115.325 185.489 115.053C185.681 114.779 186.056 114.716 186.326 114.904L191.754 118.693C192.027 118.883 192.094 119.257 191.904 119.53C191.786 119.697 191.6 119.787 191.41 119.787Z" fill="white"/>
<path d="M182.635 111.518C182.303 111.518 182.034 111.25 182.034 110.917V105.083C182.034 104.75 182.303 104.481 182.635 104.481C182.968 104.481 183.237 104.75 183.237 105.083V110.917C183.237 111.25 182.968 111.518 182.635 111.518Z" fill="white"/>
<path d="M173.861 119.787C173.672 119.787 173.486 119.697 173.368 119.53C173.178 119.257 173.245 118.883 173.517 118.693L178.945 114.904C179.216 114.716 179.591 114.779 179.783 115.053C179.974 115.325 179.906 115.7 179.633 115.89L174.206 119.679C174.102 119.753 173.981 119.787 173.861 119.787" fill="white"/>
<path d="M182.635 128.403C181.49 128.403 180.559 129.336 180.559 130.481C180.559 131.627 181.49 132.559 182.635 132.559C183.781 132.559 184.713 131.627 184.713 130.481C184.713 129.336 183.781 128.403 182.635 128.403ZM182.635 133.762C180.827 133.762 179.356 132.29 179.356 130.481C179.356 128.672 180.827 127.201 182.635 127.201C184.444 127.201 185.916 128.672 185.916 130.481C185.916 132.29 184.444 133.762 182.635 133.762Z" fill="white"/>
<path d="M156.833 155.535C156.35 155.535 155.898 155.721 155.558 156.063L152.687 158.933C151.983 159.636 151.983 160.782 152.687 161.485L155.558 164.355C156.237 165.037 157.426 165.037 158.109 164.355L160.98 161.485C161.683 160.782 161.683 159.636 160.98 158.933L158.109 156.063C157.769 155.722 157.315 155.535 156.833 155.535ZM156.833 166.087C156.029 166.087 155.274 165.773 154.707 165.206L151.836 162.336C150.663 161.163 150.663 159.255 151.836 158.082L154.707 155.212C155.842 154.077 157.823 154.076 158.959 155.212L161.831 158.082C163.001 159.255 163.001 161.163 161.831 162.336L158.959 165.206C158.39 165.773 157.635 166.087 156.833 166.087Z" fill="white"/>
<path d="M172.143 155.535C171.68 155.535 171.218 155.712 170.865 156.063L167.997 158.933C167.293 159.636 167.293 160.782 167.997 161.485L170.865 164.355C171.571 165.06 172.714 165.058 173.418 164.355L176.288 161.485C176.991 160.782 176.991 159.636 176.288 158.933L173.418 156.063C173.065 155.712 172.605 155.535 172.143 155.535ZM172.142 166.086C171.372 166.086 170.602 165.791 170.015 165.206L167.146 162.336C165.973 161.163 165.973 159.255 167.146 158.082L170.015 155.212C171.187 154.041 173.095 154.038 174.268 155.212L177.138 158.082C178.311 159.255 178.311 161.163 177.138 162.336L174.268 165.206C173.682 165.791 172.911 166.086 172.142 166.086" fill="white"/>
<path d="M35.7017 117.146H1.70933C1.37735 117.146 1.10791 116.877 1.10791 116.545C1.10791 116.211 1.37735 115.943 1.70933 115.943H35.7017C36.0349 115.943 36.3031 116.211 36.3031 116.545C36.3031 116.877 36.0349 117.146 35.7017 117.146Z" fill="white"/>
<path d="M47.4838 14.4473C46.3387 14.4473 45.4065 15.3795 45.4065 16.5258C45.4065 17.6709 46.3387 18.6031 47.4838 18.6031C48.6289 18.6031 49.5611 17.6709 49.5611 16.5258C49.5611 15.3795 48.6289 14.4473 47.4838 14.4473ZM47.4838 19.806C45.6747 19.806 44.2036 18.3349 44.2036 16.5258C44.2036 14.7167 45.6747 13.2445 47.4838 13.2445C49.2928 13.2445 50.7639 14.7167 50.7639 16.5258C50.7639 18.3349 49.2928 19.806 47.4838 19.806Z" fill="white"/>
<path d="M211.009 59.5323H188.096C187.764 59.5323 187.495 59.2629 187.495 58.9309C187.495 58.5977 187.764 58.3294 188.096 58.3294H211.009C211.342 58.3294 211.61 58.5977 211.61 58.9309C211.61 59.2629 211.342 59.5323 211.009 59.5323" fill="white"/>
<path d="M209.582 158.796H207.808C207.476 158.796 207.206 158.526 207.206 158.194C207.206 157.861 207.476 157.593 207.808 157.593H209.582C210.38 157.593 211.028 156.943 211.028 156.146V132.123C211.028 131.325 210.38 130.677 209.582 130.677H194.657C193.859 130.677 193.21 131.325 193.21 132.123V134.08C193.21 134.413 192.942 134.681 192.609 134.681C192.277 134.681 192.007 134.413 192.007 134.08V132.123C192.007 130.662 193.197 129.474 194.657 129.474H209.582C211.042 129.474 212.231 130.662 212.231 132.123V156.146C212.231 157.606 211.042 158.796 209.582 158.796Z" fill="white"/>
<path d="M205.179 162.071L189.9 162.017C189.118 162.015 188.384 161.707 187.831 161.151C187.279 160.594 186.977 159.857 186.98 159.075L187.041 139.593C187.042 139.262 187.31 138.993 187.642 138.993C187.643 138.993 187.643 138.993 187.643 138.993C187.975 138.994 188.245 139.265 188.244 139.597L188.182 159.078C188.179 160.032 188.951 160.81 189.905 160.814L205.181 160.868C206.129 160.868 206.905 160.095 206.908 159.145L206.989 135.901C206.991 134.947 206.219 134.167 205.265 134.164L193.874 134.134C193.542 134.133 193.273 133.863 193.274 133.531C193.275 133.199 193.545 132.931 193.875 132.931H193.877L205.269 132.961C206.887 132.967 208.196 134.288 208.192 135.906L208.111 159.148C208.105 160.76 206.789 162.071 205.179 162.071" fill="white"/>
<path d="M188.245 139.557L193.242 139.575C193.242 139.575 193.243 139.575 193.244 139.575C193.571 139.575 193.84 139.308 193.841 138.98L193.858 134.136C193.62 134.149 193.303 134.232 193.007 134.514L188.663 138.676C188.352 138.974 188.26 139.304 188.245 139.557ZM193.244 140.778C193.242 140.778 193.239 140.778 193.237 140.778L187.637 140.758C187.409 140.758 187.201 140.628 187.1 140.425C187.046 140.318 187.028 140.2 187.042 140.085C187.042 140.041 187.044 139.935 187.04 139.686C187.027 138.978 187.307 138.31 187.831 137.809L192.176 133.645C192.666 133.179 193.297 132.962 193.958 132.931C194.32 132.935 194.413 132.932 194.439 132.933C194.594 132.925 194.761 132.991 194.878 133.104C194.994 133.218 195.062 133.374 195.062 133.537L195.044 138.985C195.04 139.975 194.233 140.778 193.244 140.778" fill="white"/>
<path d="M209.72 71.4873C209.534 71.4873 209.349 71.4007 209.233 71.2383C209.038 70.9689 209.098 70.5924 209.367 70.3987L214.733 66.5124L209.349 62.3108C209.088 62.1063 209.041 61.7287 209.246 61.4664C209.45 61.203 209.828 61.1585 210.09 61.363L216.104 66.0577C216.254 66.1732 216.339 66.3536 216.335 66.5412C216.332 66.7313 216.24 66.9081 216.086 67.0176L210.072 71.3718C209.966 71.45 209.842 71.4873 209.72 71.4873" fill="white"/>
<path d="M23.0213 98.4611C24.1003 98.4611 24.9747 99.3355 24.9747 100.413C24.9747 101.492 24.1003 102.367 23.0213 102.367C21.9424 102.367 21.0679 101.492 21.0679 100.413C21.0679 99.3355 21.9424 98.4611 23.0213 98.4611Z" fill="white"/>
<path d="M215.734 108.571C216.811 108.571 217.686 109.445 217.686 110.524C217.686 111.603 216.811 112.478 215.734 112.478C214.655 112.478 213.78 111.603 213.78 110.524C213.78 109.445 214.655 108.571 215.734 108.571Z" fill="white"/>
<path d="M130.352 30.9166C131.431 30.9166 132.306 31.7911 132.306 32.87C132.306 33.949 131.431 34.8235 130.352 34.8235C129.273 34.8235 128.399 33.949 128.399 32.87C128.399 31.7911 129.273 30.9166 130.352 30.9166Z" fill="white"/>
<path d="M113.901 159.516C114.98 159.516 115.854 160.391 115.854 161.47C115.854 162.549 114.98 163.423 113.901 163.423C112.822 163.423 111.947 162.549 111.947 161.47C111.947 160.391 112.822 159.516 113.901 159.516Z" fill="white"/>
<path d="M160.464 21.8833C161.543 21.8833 162.418 22.7565 162.418 23.8355C162.418 24.9144 161.543 25.7889 160.464 25.7889C159.385 25.7889 158.511 24.9144 158.511 23.8355C158.511 22.7565 159.385 21.8833 160.464 21.8833Z" fill="white"/>
<path d="M70.7464 27.7279C71.8253 27.7279 72.6998 28.6024 72.6998 29.6813C72.6998 30.7603 71.8253 31.6348 70.7464 31.6348C69.6674 31.6348 68.793 30.7603 68.793 29.6813C68.793 28.6024 69.6674 27.7279 70.7464 27.7279Z" fill="white"/>
<path d="M136.89 10.8929C136.771 10.8929 136.65 10.858 136.546 10.7846L132.816 8.18167C132.544 7.99162 132.477 7.61634 132.667 7.3445C132.86 7.07025 133.234 7.0065 133.505 7.19534L137.234 9.79831C137.507 9.98836 137.574 10.3636 137.383 10.6355C137.266 10.8039 137.079 10.8929 136.89 10.8929" fill="white"/>
<path d="M130.861 5.21191C130.529 5.21191 130.259 4.94248 130.259 4.61049V0.601436C130.259 0.269451 130.529 1.41698e-05 130.861 1.41698e-05C131.194 1.41698e-05 131.462 0.269451 131.462 0.601436V4.61049C131.462 4.94248 131.194 5.21191 130.861 5.21191Z" fill="white"/>
<path d="M124.834 10.8929C124.645 10.8929 124.457 10.8039 124.34 10.6355C124.149 10.3636 124.216 9.98836 124.49 9.79831L128.218 7.19534C128.489 7.0065 128.864 7.07025 129.056 7.3445C129.247 7.61634 129.179 7.99162 128.906 8.18167L125.178 10.7846C125.073 10.858 124.953 10.8929 124.834 10.8929Z" fill="white"/>
<path d="M174.7 88.8143H168.686C168.353 88.8143 168.084 88.5448 168.084 88.2128C168.084 87.8797 168.353 87.6114 168.686 87.6114H174.7C175.032 87.6114 175.302 87.8797 175.302 88.2128C175.302 88.5448 175.032 88.8143 174.7 88.8143ZM186.729 88.8143H180.714C180.381 88.8143 180.113 88.5448 180.113 88.2128C180.113 87.8797 180.381 87.6114 180.714 87.6114H186.729C187.061 87.6114 187.33 87.8797 187.33 88.2128C187.33 88.5448 187.061 88.8143 186.729 88.8143ZM198.757 88.8143H192.743C192.41 88.8143 192.141 88.5448 192.141 88.2128C192.141 87.8797 192.41 87.6114 192.743 87.6114H198.757C199.089 87.6114 199.358 87.8797 199.358 88.2128C199.358 88.5448 199.089 88.8143 198.757 88.8143ZM201.563 98.0365C201.23 98.0365 200.962 97.767 200.962 97.435V91.4208C200.962 91.0888 201.23 90.8194 201.563 90.8194C201.895 90.8194 202.165 91.0888 202.165 91.4208V97.435C202.165 97.767 201.895 98.0365 201.563 98.0365ZM201.563 110.065C201.23 110.065 200.962 109.795 200.962 109.463V103.449C200.962 103.117 201.23 102.848 201.563 102.848C201.895 102.848 202.165 103.117 202.165 103.449V109.463C202.165 109.795 201.895 110.065 201.563 110.065ZM201.563 122.093C201.23 122.093 200.962 121.824 200.962 121.492V115.478C200.962 115.144 201.23 114.876 201.563 114.876C201.895 114.876 202.165 115.144 202.165 115.478V121.492C202.165 121.824 201.895 122.093 201.563 122.093Z" fill="white"/>
<path d="M102.93 9.43385H96.9154C96.5822 9.43385 96.314 9.16442 96.314 8.83243C96.314 8.49924 96.5822 8.23101 96.9154 8.23101H102.93C103.262 8.23101 103.531 8.49924 103.531 8.83243C103.531 9.16442 103.262 9.43385 102.93 9.43385ZM113.901 10.49C113.569 10.49 113.299 10.2217 113.299 9.88853V9.43385H108.944C108.611 9.43385 108.342 9.16442 108.342 8.83243C108.342 8.49924 108.611 8.23101 108.944 8.23101H113.901C114.233 8.23101 114.502 8.49924 114.502 8.83243V9.88853C114.502 10.2217 114.233 10.49 113.901 10.49ZM113.901 22.5184C113.569 22.5184 113.299 22.2501 113.299 21.917V15.9027C113.299 15.5708 113.569 15.3013 113.901 15.3013C114.233 15.3013 114.502 15.5708 114.502 15.9027V21.917C114.502 22.2501 114.233 22.5184 113.901 22.5184ZM113.901 34.5468C113.569 34.5468 113.299 34.2786 113.299 33.9454V27.9312C113.299 27.5992 113.569 27.3298 113.901 27.3298C114.233 27.3298 114.502 27.5992 114.502 27.9312V33.9454C114.502 34.2786 114.233 34.5468 113.901 34.5468Z" fill="white"/>
</g>
</svg>
