<svg width="894" height="876" viewBox="0 0 894 876" fill="none" xmlns="http://www.w3.org/2000/svg">
<path d="M290.366 766.416H279.543C278.18 766.416 277.073 765.309 277.073 763.946C277.073 762.582 278.18 761.476 279.543 761.476H290.366C295.316 761.476 299.337 757.45 299.337 752.5V629.966C299.337 625.022 295.316 620.996 290.366 620.996H221.188C218.071 620.996 215.246 622.547 213.63 625.14L197.704 649.232C196.953 650.368 195.417 650.679 194.286 649.929C193.145 649.178 192.833 647.646 193.584 646.505L209.471 622.473C211.961 618.476 216.347 616.056 221.188 616.056H290.366C298.038 616.056 304.277 622.3 304.277 629.966V752.5C304.277 760.172 298.038 766.416 290.366 766.416Z" fill="#1C1C1F"/>
<path d="M89.9701 641.195H6.81706C3.05781 641.195 0 638.132 0 634.373V570.253C0 566.494 3.05781 563.436 6.81706 563.436H54.0719C56.4085 563.436 58.6314 564.671 59.8614 566.652L68.2396 580.118C68.5804 580.672 69.1781 581.007 69.8351 581.007H99.2373C103.001 581.007 106.059 584.065 106.059 587.829V623.742C106.059 625.106 104.958 626.212 103.589 626.212C102.226 626.212 101.119 625.106 101.119 623.742V587.829C101.119 586.792 100.275 585.947 99.2373 585.947H69.8351C67.4689 585.947 65.3002 584.747 64.0455 582.731L55.6625 569.26C55.3266 568.712 54.7141 568.376 54.0719 568.376H6.81706C5.77968 568.376 4.93988 569.216 4.93988 570.253V634.373C4.93988 635.41 5.77968 636.255 6.81706 636.255H89.9701C91.3384 636.255 92.44 637.357 92.44 638.725C92.44 640.088 91.3384 641.195 89.9701 641.195Z" fill="#1C1C1F"/>
<path d="M53.0295 706.08C51.6661 706.08 50.5596 704.974 50.5596 703.61V640.217C50.5596 638.848 51.6661 637.747 53.0295 637.747C54.3929 637.747 55.4994 638.848 55.4994 640.217V703.61C55.4994 704.974 54.3929 706.08 53.0295 706.08Z" fill="#1C1C1F"/>
<path d="M92.6181 720.035H66.9851C65.6217 720.035 64.5151 718.929 64.5151 717.565C64.5151 716.197 65.6217 715.095 66.9851 715.095H92.6181C93.9815 715.095 95.088 716.197 95.088 717.565C95.088 718.929 93.9815 720.035 92.6181 720.035Z" fill="#1C1C1F"/>
<path d="M53.0301 706.08C46.6972 706.08 41.5449 711.227 41.5449 717.565C41.5449 723.893 46.6972 729.045 53.0301 729.045C59.363 729.045 64.5153 723.893 64.5153 717.565C64.5153 711.227 59.363 706.08 53.0301 706.08ZM53.0301 733.985C43.9703 733.985 36.605 726.62 36.605 717.565C36.605 708.505 43.9703 701.14 53.0301 701.14C62.0898 701.14 69.4552 708.505 69.4552 717.565C69.4552 726.62 62.0898 733.985 53.0301 733.985Z" fill="#1C1C1F"/>
<path d="M104.053 626.212C99.1085 626.212 95.0873 630.233 95.0873 635.178V757.717C95.0873 762.662 99.1085 766.687 104.053 766.687H269.959C274.909 766.687 278.93 762.662 278.93 757.717V666.324C278.93 661.379 274.909 657.353 269.959 657.353H202.021C199.837 657.353 197.817 656.212 196.627 654.3L180.893 630.5C179.209 627.793 176.363 626.212 173.236 626.212H104.053ZM269.959 771.627H104.053C96.3817 771.627 90.1475 765.383 90.1475 757.717V635.178C90.1475 627.511 96.3817 621.272 104.053 621.272H173.236C178.077 621.272 182.499 623.722 185.048 627.837L200.786 651.633C201.028 652.018 201.403 652.413 202.021 652.413H269.959C277.631 652.413 283.87 658.652 283.87 666.324V757.717C283.87 765.383 277.631 771.627 269.959 771.627Z" fill="#1C1C1F"/>
<path d="M256.282 713.717H210.039C208.676 713.717 207.569 712.616 207.569 711.247C207.569 709.884 208.676 708.777 210.039 708.777H256.282C257.65 708.777 258.751 709.884 258.751 711.247C258.751 712.616 257.65 713.717 256.282 713.717Z" fill="#1C1C1F"/>
<path d="M256.282 729.214H210.039C208.676 729.214 207.569 728.107 207.569 726.744C207.569 725.375 208.676 724.274 210.039 724.274H256.282C257.65 724.274 258.751 725.375 258.751 726.744C258.751 728.107 257.65 729.214 256.282 729.214Z" fill="#1C1C1F"/>
<path d="M225.773 744.705H210.039C208.676 744.705 207.569 743.603 207.569 742.235C207.569 740.872 208.676 739.765 210.039 739.765H225.773C227.136 739.765 228.243 740.872 228.243 742.235C228.243 743.603 227.136 744.705 225.773 744.705Z" fill="#1C1C1F"/>
<path d="M188.185 705.626C185.083 705.626 182.563 708.15 182.563 711.247C182.563 714.349 185.083 716.874 188.185 716.874C191.282 716.874 193.807 714.349 193.807 711.247C193.807 708.15 191.282 705.626 188.185 705.626ZM188.185 721.814C182.361 721.814 177.624 717.076 177.624 711.247C177.624 705.423 182.361 700.686 188.185 700.686C194.009 700.686 198.746 705.423 198.746 711.247C198.746 717.076 194.009 721.814 188.185 721.814Z" fill="#1C1C1F"/>
<path d="M332.484 21.744C332.479 21.7538 332.47 21.7687 332.465 21.7786L332.484 21.744ZM306.97 26.2886C305.888 26.2886 305.009 27.168 305.009 28.2499V63.644C305.009 64.7259 305.888 65.6101 306.97 65.6101H371.228C372.31 65.6101 373.184 64.7259 373.184 63.644V16.1866C373.184 15.1048 372.31 14.2255 371.228 14.2255H344.429C343.737 14.2255 343.13 14.5615 342.764 15.1493L336.619 24.451C335.913 25.5822 334.653 26.2886 333.28 26.2886H306.97ZM371.228 70.55H306.97C303.166 70.55 300.069 67.4527 300.069 63.644V28.2499C300.069 24.4412 303.166 21.3487 306.97 21.3487H332.751L338.605 12.4817C339.835 10.5057 342.028 9.2856 344.429 9.2856H371.228C375.032 9.2856 378.124 12.3829 378.124 16.1866V63.644C378.124 67.4527 375.032 70.55 371.228 70.55Z" fill="#1C1C1F"/>
<path d="M256.32 295.788H124.01C102.833 295.788 85.6074 278.558 85.6074 257.381C85.6074 242.013 94.8894 228.053 108.904 222.046C108.543 218.879 108.361 215.723 108.361 212.631C108.361 166.803 145.661 129.517 191.513 129.517C219.695 129.517 245.536 143.477 260.973 166.956C264.327 166.393 267.765 166.102 271.204 166.102C298.121 166.102 321.951 183.609 330.112 209.005C335.002 207.182 340.179 206.258 345.529 206.258C358.106 206.258 370.174 211.598 378.651 220.91L374.995 224.234C367.457 215.95 356.713 211.198 345.529 211.198C339.922 211.198 334.538 212.334 329.529 214.577L326.891 215.762L326.135 212.976C319.422 188.287 296.832 171.042 271.204 171.042C267.513 171.042 263.838 171.402 260.272 172.109L258.602 172.44L257.698 171.002C243.288 148.121 218.549 134.457 191.513 134.457C148.388 134.457 113.3 169.525 113.3 212.631C113.3 216.128 113.552 219.714 114.041 223.291L114.313 225.257L112.451 225.949C99.3502 230.78 90.5473 243.411 90.5473 257.381C90.5473 275.836 105.56 290.849 124.01 290.849H256.32V295.788Z" fill="#1C1C1F"/>
<path d="M415.657 528.477H410.717V469.845H415.657V528.477Z" fill="#1C1C1F"/>
<path d="M467.273 556.387H442.573C441.21 556.387 440.104 555.285 440.104 553.917C440.104 552.554 441.21 551.447 442.573 551.447H467.273C468.641 551.447 469.743 552.554 469.743 553.917C469.743 555.285 468.641 556.387 467.273 556.387ZM516.672 556.387H491.972C490.609 556.387 489.502 555.285 489.502 553.917C489.502 552.554 490.609 551.447 491.972 551.447H516.672C518.04 551.447 519.142 552.554 519.142 553.917C519.142 555.285 518.04 556.387 516.672 556.387ZM566.07 556.387H541.371C540.008 556.387 538.901 555.285 538.901 553.917C538.901 552.554 540.008 551.447 541.371 551.447H566.07C567.439 551.447 568.54 552.554 568.54 553.917C568.54 555.285 567.439 556.387 566.07 556.387ZM615.469 556.387H590.77C589.406 556.387 588.3 555.285 588.3 553.917C588.3 552.554 589.406 551.447 590.77 551.447H615.469C616.838 551.447 617.939 552.554 617.939 553.917C617.939 555.285 616.838 556.387 615.469 556.387Z" fill="#1C1C1F"/>
<path d="M231.646 556.387H206.946C205.583 556.387 204.476 555.285 204.476 553.917C204.476 552.554 205.583 551.447 206.946 551.447H231.646C233.009 551.447 234.116 552.554 234.116 553.917C234.116 555.285 233.009 556.387 231.646 556.387ZM281.045 556.387H256.345C254.982 556.387 253.875 555.285 253.875 553.917C253.875 552.554 254.982 551.447 256.345 551.447H281.045C282.408 551.447 283.515 552.554 283.515 553.917C283.515 555.285 282.408 556.387 281.045 556.387ZM330.443 556.387H305.744C304.381 556.387 303.274 555.285 303.274 553.917C303.274 552.554 304.381 551.447 305.744 551.447H330.443C331.807 551.447 332.913 552.554 332.913 553.917C332.913 555.285 331.807 556.387 330.443 556.387ZM379.842 556.387H355.143C353.779 556.387 352.673 555.285 352.673 553.917C352.673 552.554 353.779 551.447 355.143 551.447H379.842C381.206 551.447 382.312 552.554 382.312 553.917C382.312 555.285 381.206 556.387 379.842 556.387ZM206.186 605.025C204.817 605.025 203.716 603.918 203.716 602.555V577.856C203.716 576.492 204.817 575.386 206.186 575.386C207.549 575.386 208.656 576.492 208.656 577.856V602.555C208.656 603.918 207.549 605.025 206.186 605.025Z" fill="#1C1C1F"/>
<path d="M413.182 529.969C398.337 529.969 386.259 542.047 386.259 556.891C386.259 571.74 398.337 583.818 413.182 583.818C428.026 583.818 440.104 571.74 440.104 556.891C440.104 542.047 428.026 529.969 413.182 529.969ZM413.182 588.758C395.61 588.758 381.319 574.462 381.319 556.891C381.319 539.32 395.61 525.029 413.182 525.029C430.753 525.029 445.044 539.32 445.044 556.891C445.044 574.462 430.753 588.758 413.182 588.758Z" fill="#1C1C1F"/>
<path d="M233.523 298.906C187.079 298.906 149.289 336.696 149.289 383.14C149.289 429.585 187.079 467.375 233.523 467.375H603.461C644.047 467.375 677.075 434.352 677.075 393.761C677.075 367.496 662.888 343.009 640.046 329.854L638.722 329.088L638.816 327.567C638.984 324.702 639.073 321.846 639.073 319.036C639.073 237.271 572.527 170.755 490.728 170.755C443.582 170.755 398.856 193.434 371.079 231.412L370.244 232.558L368.841 232.415C365.136 232.049 361.367 231.861 357.648 231.861C312.823 231.861 272.257 258.374 254.291 299.414L253.481 301.267L251.505 300.837C245.651 299.558 239.599 298.906 233.523 298.906ZM603.461 472.315H233.523C184.352 472.315 144.349 432.307 144.349 383.14C144.349 333.969 184.352 293.966 233.523 293.966C239.278 293.966 245.009 294.519 250.586 295.601C269.728 253.809 311.529 226.922 357.648 226.922C361.061 226.922 364.514 227.07 367.928 227.371C396.683 188.801 442.485 165.815 490.728 165.815C575.249 165.815 644.012 234.549 644.012 319.036C644.012 321.446 643.948 323.891 643.83 326.347C667.423 340.554 682.015 366.246 682.015 393.761C682.015 437.074 646.774 472.315 603.461 472.315Z" fill="#1C1C1F"/>
<path d="M413.18 287.603C412.726 287.603 412.296 287.801 412.005 288.142L361.435 347.316C361.035 347.776 360.951 348.423 361.203 348.966C361.45 349.51 362.003 349.865 362.606 349.865H393.48C394.844 349.865 395.95 350.972 395.95 352.335V408.917C395.95 409.766 396.642 410.463 397.496 410.463H428.869C429.719 410.463 430.411 409.766 430.411 408.917V352.335C430.411 350.972 431.517 349.865 432.881 349.865H463.75C464.353 349.865 464.911 349.51 465.163 348.966C465.41 348.423 465.321 347.771 464.931 347.316L414.351 288.142C414.06 287.796 413.635 287.603 413.18 287.603ZM428.869 415.403H397.496C393.92 415.403 391.01 412.493 391.01 408.917V354.805H362.606C360.087 354.805 357.77 353.328 356.713 351.036C355.656 348.734 356.036 346.017 357.686 344.1L408.25 284.936C410.725 282.041 415.655 282.051 418.11 284.941L468.68 344.105C470.32 346.017 470.7 348.734 469.653 351.031C468.591 353.328 466.274 354.805 463.75 354.805H435.351V408.917C435.351 412.493 432.446 415.403 428.869 415.403Z" fill="#1C1C1F"/>
<path d="M571.568 593.673H546.869C545.501 593.673 544.399 592.567 544.399 591.203C544.399 589.835 545.501 588.733 546.869 588.733H571.568C572.932 588.733 574.038 589.835 574.038 591.203C574.038 592.567 572.932 593.673 571.568 593.673ZM620.967 593.673H596.268C594.899 593.673 593.798 592.567 593.798 591.203C593.798 589.835 594.899 588.733 596.268 588.733H620.967C622.33 588.733 623.437 589.835 623.437 591.203C623.437 592.567 622.33 593.673 620.967 593.673ZM670.366 593.673H645.666C644.298 593.673 643.196 592.567 643.196 591.203C643.196 589.835 644.298 588.733 645.666 588.733H670.366C671.729 588.733 672.836 589.835 672.836 591.203C672.836 592.567 671.729 593.673 670.366 593.673Z" fill="#1C1C1F"/>
<path d="M96.7572 510.149H72.0578C70.6944 510.149 69.5879 509.048 69.5879 507.68C69.5879 506.316 70.6944 505.21 72.0578 505.21H96.7572C98.1256 505.21 99.2272 506.316 99.2272 507.68C99.2272 509.048 98.1256 510.149 96.7572 510.149ZM146.156 510.149H121.457C120.093 510.149 118.987 509.048 118.987 507.68C118.987 506.316 120.093 505.21 121.457 505.21H146.156C147.524 505.21 148.626 506.316 148.626 507.68C148.626 509.048 147.524 510.149 146.156 510.149ZM195.555 510.149H170.855C169.492 510.149 168.385 509.048 168.385 507.68C168.385 506.316 169.492 505.21 170.855 505.21H195.555C196.923 505.21 198.025 506.316 198.025 507.68C198.025 509.048 196.923 510.149 195.555 510.149Z" fill="#1C1C1F"/>
<path d="M689.839 152.438C677.879 152.438 668.153 162.165 668.153 174.119C668.153 186.079 677.879 195.805 689.839 195.805H792.895C803.224 195.805 811.622 187.408 811.622 177.083C811.622 170.4 808.011 164.17 802.196 160.816C801.386 160.352 800.907 159.468 800.966 158.534C801.011 157.773 801.036 157.013 801.036 156.262C801.036 134.467 783.296 116.738 761.492 116.738C748.925 116.738 737 122.779 729.595 132.906C729.076 133.612 728.236 134.003 727.357 133.904C714.667 132.634 702.366 139.832 697.254 151.509C696.779 152.586 695.643 153.194 694.463 152.932C692.961 152.606 691.405 152.438 689.839 152.438ZM792.895 200.745H689.839C675.157 200.745 663.213 188.801 663.213 174.119C663.213 159.443 675.157 147.498 689.839 147.498C691.094 147.498 692.338 147.587 693.563 147.755C699.738 135.593 712.691 128.02 726.448 128.88C734.821 118.155 747.818 111.798 761.492 111.798C786.018 111.798 805.975 131.745 805.975 156.262C805.975 156.617 805.97 156.983 805.961 157.343C812.536 161.72 816.562 169.15 816.562 177.083C816.562 190.129 805.946 200.745 792.895 200.745Z" fill="#1C1C1F"/>
<path d="M829.09 224.704H686.228C684.86 224.704 683.758 223.597 683.758 222.234C683.758 220.87 684.86 219.764 686.228 219.764H829.09C830.458 219.764 831.56 220.87 831.56 222.234C831.56 223.597 830.458 224.704 829.09 224.704Z" fill="#1C1C1F"/>
<path d="M786.087 492.159C785.598 492.159 785.104 492.015 784.674 491.714L762.386 476.153C761.264 475.373 760.988 473.832 761.773 472.715C762.558 471.589 764.1 471.332 765.211 472.103L787.5 487.663C788.621 488.444 788.898 489.98 788.117 491.102C787.633 491.788 786.868 492.159 786.087 492.159Z" fill="#1C1C1F"/>
<path d="M750.052 458.197C748.689 458.197 747.582 457.095 747.582 455.727V431.769C747.582 430.4 748.689 429.299 750.052 429.299C751.42 429.299 752.522 430.4 752.522 431.769V455.727C752.522 457.095 751.42 458.197 750.052 458.197Z" fill="#1C1C1F"/>
<path d="M714.019 492.159C713.243 492.159 712.478 491.788 711.994 491.102C711.213 489.98 711.49 488.444 712.606 487.663L734.9 472.103C736.011 471.332 737.552 471.589 738.338 472.715C739.123 473.832 738.847 475.373 737.725 476.153L715.437 491.714C715.007 492.015 714.513 492.159 714.019 492.159Z" fill="#1C1C1F"/>
<path d="M750.052 527.543C745.349 527.543 741.526 531.371 741.526 536.074C741.526 540.782 745.349 544.61 750.052 544.61C754.76 544.61 758.588 540.782 758.588 536.074C758.588 531.371 754.76 527.543 750.052 527.543ZM750.052 549.55C742.627 549.55 736.586 543.504 736.586 536.074C736.586 528.645 742.627 522.603 750.052 522.603C757.482 522.603 763.528 528.645 763.528 536.074C763.528 543.504 757.482 549.55 750.052 549.55Z" fill="#1C1C1F"/>
<path d="M644.086 638.967C642.105 638.967 640.248 639.733 638.85 641.135L627.058 652.922C624.169 655.812 624.169 660.515 627.058 663.404L638.85 675.191C641.641 677.992 646.521 677.992 649.327 675.191L661.119 663.404C664.004 660.515 664.004 655.812 661.119 652.922L649.327 641.135C647.929 639.737 646.067 638.967 644.086 638.967ZM644.086 682.304C640.786 682.304 637.684 681.015 635.357 678.684L623.566 666.897C618.75 662.081 618.75 654.246 623.566 649.43L635.357 637.643C640.016 632.98 648.152 632.975 652.82 637.643L664.611 649.43C669.418 654.246 669.418 662.081 664.611 666.897L652.82 678.684C650.483 681.015 647.381 682.304 644.086 682.304Z" fill="#1C1C1F"/>
<path d="M706.961 638.967C705.059 638.967 703.162 639.693 701.715 641.135L689.933 652.922C687.043 655.812 687.043 660.514 689.933 663.404L701.715 675.191C704.615 678.086 709.308 678.076 712.197 675.191L723.984 663.404C726.874 660.514 726.874 655.812 723.984 652.922L712.197 641.135C710.75 639.693 708.858 638.967 706.961 638.967ZM706.956 682.299C703.795 682.299 700.633 681.089 698.222 678.683L686.441 666.897C681.625 662.08 681.625 654.246 686.441 649.429L698.222 637.643C703.034 632.831 710.874 632.822 715.69 637.643L727.476 649.429C732.293 654.246 732.293 662.08 727.476 666.897L715.69 678.683C713.284 681.089 710.118 682.299 706.956 682.299Z" fill="#1C1C1F"/>
<path d="M146.62 481.311H7.01926C5.65585 481.311 4.54932 480.204 4.54932 478.841C4.54932 477.472 5.65585 476.371 7.01926 476.371H146.62C147.989 476.371 149.09 477.472 149.09 478.841C149.09 480.204 147.989 481.311 146.62 481.311Z" fill="#1C1C1F"/>
<path d="M195.007 59.5438C190.304 59.5438 186.476 63.3722 186.476 68.0799C186.476 72.7826 190.304 76.6111 195.007 76.6111C199.71 76.6111 203.538 72.7826 203.538 68.0799C203.538 63.3722 199.71 59.5438 195.007 59.5438ZM195.007 81.5509C187.578 81.5509 181.536 75.5095 181.536 68.0799C181.536 60.6503 187.578 54.6039 195.007 54.6039C202.437 54.6039 208.478 60.6503 208.478 68.0799C208.478 75.5095 202.437 81.5509 195.007 81.5509Z" fill="#1C1C1F"/>
<path d="M866.578 244.7H772.479C771.115 244.7 770.009 243.594 770.009 242.23C770.009 240.862 771.115 239.761 772.479 239.761H866.578C867.947 239.761 869.048 240.862 869.048 242.23C869.048 243.594 867.947 244.7 866.578 244.7Z" fill="#1C1C1F"/>
<path d="M860.72 652.359H853.433C852.07 652.359 850.963 651.252 850.963 649.889C850.963 648.521 852.07 647.419 853.433 647.419H860.72C863.995 647.419 866.657 644.751 866.657 641.476V542.817C866.657 539.542 863.995 536.879 860.72 536.879H799.426C796.145 536.879 793.483 539.542 793.483 542.817V550.854C793.483 552.223 792.381 553.324 791.013 553.324C789.65 553.324 788.543 552.223 788.543 550.854V542.817C788.543 536.82 793.429 531.939 799.426 531.939H860.72C866.717 531.939 871.597 536.82 871.597 542.817V641.476C871.597 647.473 866.717 652.359 860.72 652.359Z" fill="#1C1C1F"/>
<path d="M842.635 665.81L779.889 665.588C776.678 665.578 773.664 664.313 771.392 662.031C769.125 659.744 767.885 656.716 767.895 653.505L768.147 573.499C768.151 572.135 769.253 571.034 770.616 571.034C770.621 571.034 770.621 571.034 770.621 571.034C771.985 571.039 773.091 572.15 773.086 573.513L772.834 653.52C772.82 657.437 775.991 660.633 779.908 660.648L842.645 660.87C846.537 660.87 849.724 657.694 849.738 653.791L850.07 558.333C850.079 554.416 846.908 551.215 842.991 551.2L796.21 551.077C794.847 551.072 793.74 549.965 793.745 548.602C793.75 547.238 794.856 546.137 796.215 546.137H796.22L843.005 546.26C849.65 546.285 855.029 551.709 855.009 558.353L854.678 653.806C854.654 660.426 849.249 665.81 842.635 665.81Z" fill="#1C1C1F"/>
<path d="M773.091 573.351L793.612 573.425C793.612 573.425 793.617 573.425 793.621 573.425C794.965 573.425 796.067 572.328 796.072 570.979L796.141 551.086C795.163 551.141 793.864 551.482 792.648 552.638L774.805 569.73C773.531 570.955 773.151 572.308 773.091 573.351ZM793.621 578.364C793.612 578.364 793.602 578.364 793.592 578.364L770.592 578.281C769.658 578.281 768.803 577.747 768.389 576.912C768.166 576.473 768.092 575.988 768.151 575.519C768.151 575.336 768.156 574.902 768.142 573.879C768.087 570.969 769.238 568.228 771.392 566.168L789.235 549.071C791.245 547.154 793.839 546.265 796.551 546.137C798.038 546.152 798.423 546.142 798.527 546.147C799.164 546.112 799.851 546.384 800.33 546.848C800.809 547.317 801.086 547.955 801.086 548.626L801.012 570.999C800.997 575.065 797.682 578.364 793.621 578.364Z" fill="#1C1C1F"/>
<path d="M861.284 293.798C860.523 293.798 859.762 293.442 859.283 292.775C858.483 291.669 858.73 290.122 859.836 289.327L881.873 273.366L859.762 256.111C858.69 255.272 858.498 253.721 859.338 252.644C860.177 251.562 861.728 251.379 862.805 252.219L887.505 271.499C888.117 271.973 888.468 272.714 888.453 273.485C888.438 274.265 888.063 274.992 887.431 275.441L862.731 293.323C862.296 293.645 861.788 293.798 861.284 293.798Z" fill="#1C1C1F"/>
<path d="M94.5454 404.575C98.9765 404.575 102.568 408.166 102.568 412.592C102.568 417.023 98.9765 420.614 94.5454 420.614C90.1144 420.614 86.5229 417.023 86.5229 412.592C86.5229 408.166 90.1144 404.575 94.5454 404.575Z" fill="#1C1C1F"/>
<path d="M885.983 446.094C890.409 446.094 894 449.686 894 454.117C894 458.548 890.409 462.139 885.983 462.139C881.552 462.139 877.96 458.548 877.96 454.117C877.96 449.686 881.552 446.094 885.983 446.094Z" fill="#1C1C1F"/>
<path d="M535.335 127.181C539.766 127.181 543.358 130.772 543.358 135.203C543.358 139.634 539.766 143.225 535.335 143.225C530.904 143.225 527.313 139.634 527.313 135.203C527.313 130.772 530.904 127.181 535.335 127.181Z" fill="#1C1C1F"/>
<path d="M467.772 655.318C472.203 655.318 475.794 658.909 475.794 663.34C475.794 667.771 472.203 671.363 467.772 671.363C463.341 671.363 459.75 667.771 459.75 663.34C459.75 658.909 463.341 655.318 467.772 655.318Z" fill="#1C1C1F"/>
<path d="M659 90.082C663.431 90.082 667.022 93.6683 667.022 98.0994C667.022 102.53 663.431 106.122 659 106.122C654.569 106.122 650.978 102.53 650.978 98.0994C650.978 93.6683 654.569 90.082 659 90.082Z" fill="#1C1C1F"/>
<path d="M290.544 114.085C294.975 114.085 298.567 117.676 298.567 122.107C298.567 126.538 294.975 130.13 290.544 130.13C286.113 130.13 282.522 126.538 282.522 122.107C282.522 117.676 286.113 114.085 290.544 114.085Z" fill="#1C1C1F"/>
<path d="M562.183 44.9464C561.694 44.9464 561.2 44.8032 560.77 44.5019L545.452 33.8119C544.335 33.0314 544.059 31.4902 544.839 30.3738C545.635 29.2475 547.171 28.9857 548.282 29.7612L563.596 40.4512C564.717 41.2317 564.994 42.7729 564.209 43.8893C563.729 44.5809 562.959 44.9464 562.183 44.9464Z" fill="#1C1C1F"/>
<path d="M537.424 21.6155C536.06 21.6155 534.954 20.5089 534.954 19.1455V2.68101C534.954 1.3176 536.06 0.211065 537.424 0.211065C538.792 0.211065 539.893 1.3176 539.893 2.68101V19.1455C539.893 20.5089 538.792 21.6155 537.424 21.6155Z" fill="#1C1C1F"/>
<path d="M512.67 44.9464C511.895 44.9464 511.124 44.5809 510.645 43.8893C509.86 42.7729 510.136 41.2317 511.258 40.4512L526.571 29.7612C527.683 28.9857 529.224 29.2475 530.009 30.3738C530.795 31.4902 530.518 33.0314 529.397 33.8119L514.083 44.5019C513.653 44.8032 513.16 44.9464 512.67 44.9464Z" fill="#1C1C1F"/>
<path d="M717.464 364.957H692.764C691.396 364.957 690.294 363.85 690.294 362.487C690.294 361.118 691.396 360.017 692.764 360.017H717.464C718.827 360.017 719.934 361.118 719.934 362.487C719.934 363.85 718.827 364.957 717.464 364.957ZM766.863 364.957H742.163C740.795 364.957 739.693 363.85 739.693 362.487C739.693 361.118 740.795 360.017 742.163 360.017H766.863C768.226 360.017 769.332 361.118 769.332 362.487C769.332 363.85 768.226 364.957 766.863 364.957ZM816.261 364.957H791.562C790.194 364.957 789.092 363.85 789.092 362.487C789.092 361.118 790.194 360.017 791.562 360.017H816.261C817.625 360.017 818.731 361.118 818.731 362.487C818.731 363.85 817.625 364.957 816.261 364.957ZM827.786 402.831C826.418 402.831 825.316 401.724 825.316 400.361V375.661C825.316 374.298 826.418 373.191 827.786 373.191C829.149 373.191 830.256 374.298 830.256 375.661V400.361C830.256 401.724 829.149 402.831 827.786 402.831ZM827.786 452.229C826.418 452.229 825.316 451.123 825.316 449.76V425.06C825.316 423.697 826.418 422.59 827.786 422.59C829.149 422.59 830.256 423.697 830.256 425.06V449.76C830.256 451.123 829.149 452.229 827.786 452.229ZM827.786 501.628C826.418 501.628 825.316 500.522 825.316 499.158V474.459C825.316 473.091 826.418 471.989 827.786 471.989C829.149 471.989 830.256 473.091 830.256 474.459V499.158C830.256 500.522 829.149 501.628 827.786 501.628Z" fill="#1C1C1F"/>
<path d="M422.715 38.9543H398.016C396.647 38.9543 395.546 37.8477 395.546 36.4843C395.546 35.116 396.647 34.0144 398.016 34.0144H422.715C424.079 34.0144 425.185 35.116 425.185 36.4843C425.185 37.8477 424.079 38.9543 422.715 38.9543ZM467.772 43.2915C466.408 43.2915 465.302 42.1899 465.302 40.8215V38.9543H447.415C446.046 38.9543 444.945 37.8477 444.945 36.4843C444.945 35.116 446.046 34.0144 447.415 34.0144H467.772C469.135 34.0144 470.242 35.116 470.242 36.4843V40.8215C470.242 42.1899 469.135 43.2915 467.772 43.2915ZM467.772 92.6903C466.408 92.6903 465.302 91.5887 465.302 90.2203V65.5209C465.302 64.1575 466.408 63.051 467.772 63.051C469.135 63.051 470.242 64.1575 470.242 65.5209V90.2203C470.242 91.5887 469.135 92.6903 467.772 92.6903ZM467.772 142.089C466.408 142.089 465.302 140.987 465.302 139.619V114.92C465.302 113.556 466.408 112.45 467.772 112.45C469.135 112.45 470.242 113.556 470.242 114.92V139.619C470.242 140.987 469.135 142.089 467.772 142.089Z" fill="#1C1C1F"/>
<path d="M441.631 502.336C441.631 502.336 340.301 502.336 265.699 575.701V781.294C265.699 781.294 622.692 786.724 622.692 781.294C622.692 775.858 622.787 566.768 622.787 566.768C622.787 566.768 549.752 502.336 441.631 502.336Z" fill="#1C1C1F"/>
<path d="M441.632 502.336C441.632 502.336 406.924 501.544 370.196 514.791C370.196 514.791 379.522 550.546 440.729 550.594C513.387 550.647 513.387 511.146 513.387 511.146C513.387 511.146 467.839 498.26 441.632 502.336Z" fill="#FFD5BC"/>
<path d="M151.894 787.256L215.067 683.806L308.831 696.463L294.92 818.202L151.894 787.256Z" fill="#EBB99D"/>
<path d="M280.79 562.114C280.79 562.114 221.065 606.578 162.999 704.486C162.999 704.486 180.177 761.139 288.33 769.816L280.79 562.114Z" fill="#1C1C1F"/>
<path d="M747.381 786.007L667.831 663.439L591.523 696.463L605.434 818.202L747.381 786.007Z" fill="#EBB99D"/>
<path d="M290.875 769.816H189.088C162.366 769.816 140.703 791.48 140.703 818.202C140.703 844.934 162.366 866.598 189.088 866.598H308.83L290.875 769.816Z" fill="#FFD5BC"/>
<path d="M609.478 769.816H711.259C737.987 769.816 759.65 791.48 759.65 818.202C759.65 844.934 737.987 866.598 711.259 866.598H591.523L609.478 769.816Z" fill="#FFD5BC"/>
<path d="M622.788 566.769C622.788 566.769 677.863 606.578 735.93 704.486C735.93 704.486 723.401 761.139 615.248 769.816L622.788 566.769Z" fill="#1C1C1F"/>
<path d="M605.681 866.067H281.09C272.142 866.067 264.889 858.808 264.889 849.866V644.942C264.889 635.999 272.142 628.746 281.09 628.746H605.681C614.629 628.746 621.882 635.999 621.882 644.942V849.866C621.882 858.808 614.629 866.067 605.681 866.067Z" fill="#F6F6F6"/>
<path fill-rule="evenodd" clip-rule="evenodd" d="M441.895 743.335C441.895 736.772 438.59 730.969 433.528 727.452C429.879 730.366 427.547 734.817 427.547 739.803C427.547 748.581 434.774 755.696 443.689 755.696C452.604 755.696 459.83 748.581 459.83 739.803C459.83 734.817 457.498 730.366 453.849 727.452C448.788 730.969 445.482 736.772 445.482 743.335V745.631H441.895V743.335ZM443.689 734.49C445.2 730.929 447.596 727.823 450.606 725.439C448.509 724.458 446.164 723.91 443.689 723.91C441.213 723.91 438.868 724.458 436.772 725.439C439.782 727.823 442.178 730.929 443.689 734.49ZM453.967 723.219C450.973 721.417 447.454 720.378 443.689 720.378C439.923 720.378 436.404 721.417 433.411 723.219C430.076 721.408 426.244 720.378 422.167 720.378V723.91C425.039 723.91 427.768 724.514 430.229 725.601C426.372 729.146 423.96 734.197 423.96 739.803V746.867C423.96 761.496 436.005 773.356 450.863 773.356H463.417V773.014L463.449 773.014V741.216L463.436 741.252L463.427 741.277L463.417 741.304V739.803C463.417 734.197 461.006 729.146 457.148 725.601C459.61 724.514 462.339 723.91 465.211 723.91V720.378C461.134 720.378 457.301 721.408 453.967 723.219ZM459.83 769.15V750.975C456.713 755.333 451.821 758.372 446.189 759.074C448.867 764.237 453.865 768.04 459.83 769.15ZM451.684 769.824H450.863C439.653 769.824 430.29 762.034 428.054 751.652C431.394 755.918 436.494 758.779 442.284 759.18C444.191 763.636 447.508 767.365 451.684 769.824ZM438.308 739.803C438.308 741.266 437.104 742.452 435.618 742.452C434.132 742.452 432.928 741.266 432.928 739.803C432.928 738.34 434.132 737.154 435.618 737.154C437.104 737.154 438.308 738.34 438.308 739.803ZM451.76 742.452C453.245 742.452 454.45 741.266 454.45 739.803C454.45 738.34 453.245 737.154 451.76 737.154C450.274 737.154 449.069 738.34 449.069 739.803C449.069 741.266 450.274 742.452 451.76 742.452Z" fill="#1C1C1F"/>
<path d="M384.814 361.654C385.297 378.689 371.881 392.887 354.845 393.37C337.81 393.849 323.612 380.432 323.129 363.396C322.65 346.361 336.067 332.163 353.102 331.685C370.133 331.201 384.336 344.618 384.814 361.654Z" fill="#FFD5BC"/>
<path d="M337.002 359.315L337.028 359.305C337.251 359.209 338.58 358.672 340.61 358.672C344.712 358.704 351.922 360.734 359.313 374.13C359.648 374.741 360.413 374.964 361.019 374.629C361.63 374.294 361.853 373.529 361.519 372.923C353.926 359.007 345.684 356.133 340.61 356.159C337.783 356.164 336.024 357.004 335.902 357.062C335.28 357.365 335.02 358.115 335.323 358.742C335.631 359.363 336.38 359.624 337.002 359.315Z" fill="#1C1C1F"/>
<path d="M382.513 226.912C382.513 226.912 347.933 231.157 343.326 266.514C336.928 315.664 359.075 350.936 359.075 350.936L360.271 271.838L382.513 226.912Z" fill="#1D0300"/>
<path d="M497.472 362.525C497.472 379.565 511.282 393.381 528.322 393.381C545.363 393.381 559.184 379.565 559.184 362.525C559.184 345.484 545.363 331.669 528.322 331.669C511.282 331.669 497.472 345.484 497.472 362.525Z" fill="#FFD5BC"/>
<path d="M546.23 356.552C546.118 356.499 544.492 355.782 541.899 355.782C536.872 355.745 528.461 358.625 521.08 373.136C520.762 373.753 521.006 374.507 521.622 374.826C522.239 375.139 522.999 374.895 523.312 374.279C530.512 360.32 537.85 358.327 541.899 358.29C542.962 358.29 543.812 358.439 544.386 358.582L545.029 358.774L545.172 358.832L545.193 358.837C545.826 359.124 546.57 358.848 546.857 358.216C547.144 357.583 546.862 356.839 546.23 356.552Z" fill="#1C1C1F"/>
<path d="M480.735 428.599C480.735 428.599 463.338 440.879 447.482 443.908C431.632 446.936 416.222 437.738 416.026 437.627L397.513 426.978L394.58 518.957L391.982 520.646C418.858 542.82 457.61 543.086 484.784 521.279L484.109 518.091L480.735 428.599Z" fill="#FFD5BC"/>
<path d="M391.982 426.612C391.982 426.612 404.862 477.405 443.593 476.778C476.293 476.252 485.028 426.612 485.028 426.612H391.982Z" fill="#EBB99D"/>
<path d="M524.465 308.81C524.64 343.688 519.816 373.811 514.949 395.198C510.182 416.134 496.558 430.82 477.254 442.68L473.736 444.843C453.311 457.394 426.844 457.819 405.983 445.927C384.941 433.934 370.175 418.062 365.541 395.639C357.109 354.868 355.982 309.665 355.982 309.665C355.982 309.665 344.138 215.323 435.006 216.571C525.879 217.82 524.465 308.81 524.465 308.81Z" fill="#FFD5BC"/>
<path d="M474.804 308.704C474.804 308.704 456.095 305.064 455.224 315.138C455.224 315.138 454.783 321.972 471.143 324.724C487.493 327.482 494.008 326.908 495.947 320.622C497.876 314.336 483.641 309.522 474.804 308.704Z" fill="#1C1C1F"/>
<path d="M394.177 309.14C394.177 309.14 375.133 309.984 376.647 319.979C376.647 319.979 377.822 326.728 394.363 325.574C410.909 324.421 417.11 322.339 417.514 315.776C417.918 309.209 402.955 307.864 394.177 309.14Z" fill="#1C1C1F"/>
<path d="M408.379 352.185C408.379 356.244 405.085 359.539 401.025 359.539C396.966 359.539 393.671 356.244 393.671 352.185C393.671 348.12 396.966 344.831 401.025 344.831C405.085 344.831 408.379 348.12 408.379 352.185Z" fill="#1C1C1F"/>
<path d="M480.528 352.185C480.528 356.244 477.239 359.539 473.174 359.539C469.114 359.539 465.825 356.244 465.825 352.185C465.825 348.12 469.114 344.831 473.174 344.831C477.239 344.831 480.528 348.12 480.528 352.185Z" fill="#1C1C1F"/>
<path d="M438.508 378.577H431.686V361.117C431.686 360.426 431.123 359.863 430.432 359.863C429.736 359.863 429.178 360.426 429.178 361.117V379.831L429.544 380.719L430.432 381.09H438.508C439.204 381.09 439.768 380.527 439.768 379.831C439.768 379.14 439.204 378.577 438.508 378.577Z" fill="#1C1C1F"/>
<path d="M411.733 396.16C411.961 396.526 417.259 403.663 437.588 403.636C442.312 403.636 447.86 403.253 454.353 402.324C455.038 402.228 455.516 401.59 455.421 400.905C455.32 400.219 454.682 399.741 453.997 399.837C447.605 400.756 442.179 401.123 437.588 401.123C427.705 401.123 421.69 399.417 418.194 397.775C416.44 396.957 415.319 396.149 414.644 395.575L413.948 394.906L413.815 394.752L413.794 394.725L413.422 395.001L413.805 394.736L413.794 394.725L413.422 395.001L413.805 394.736C413.412 394.162 412.63 394.018 412.057 394.412C411.488 394.805 411.345 395.586 411.733 396.16Z" fill="#1C1C1F"/>
<path d="M359.228 354.443C359.228 354.443 379.144 246.641 365.945 232.087C365.945 232.087 320.338 273.453 359.228 354.443Z" fill="#1C1C1F"/>
<path d="M521.039 350.118C521.039 350.118 488.764 257.008 510.066 241.71C510.066 241.71 554.286 263.788 521.039 350.118Z" fill="#1C1C1F"/>
<path d="M487.064 226.364C487.064 226.364 534.721 213.187 539.743 263.14C543.308 298.618 520.624 350.936 520.624 350.936L519.424 271.838L487.064 226.364Z" fill="#1C1C1F"/>
<path d="M475.676 229.446C475.676 229.446 474.656 292.476 522.196 293.22C522.196 293.22 531.272 236.928 475.676 229.446Z" fill="#1C1C1F"/>
<path d="M495.442 254.532C495.442 254.532 461.823 251.434 425.988 267.619C390.153 283.799 331.715 292.157 323.144 249.989C314.222 206.067 362.337 167.846 451.196 196.858C521.404 219.776 500.554 245.525 500.554 245.525L495.442 254.532Z" fill="#1C1C1F"/>
<path d="M487.064 231.014C487.064 231.014 523.148 206.98 536.045 251.885L508.637 261.333L487.064 231.014Z" fill="#1C1C1F"/>
<path d="M502.585 234.935C502.585 234.935 500.996 195.216 444.73 171.581C440.006 169.599 434.576 170.184 430.341 173.064C423.301 177.851 421.558 187.479 426.478 194.424L436.983 209.254L502.585 234.935Z" fill="#1C1C1F"/>
<rect y="866.067" width="894" height="9.93333" rx="4.96667" fill="#1C1C1F"/>
</svg>
