<svg width="140" height="38" viewBox="0 0 140 38" fill="none" xmlns="http://www.w3.org/2000/svg">
<path d="M54.2292 27.7527C52.7463 29.2509 50.9121 30 48.7268 30C46.5414 30 44.7073 29.2509 43.2244 27.7527C41.7415 26.2545 41 24.4014 41 22.1935C41 20.0054 41.7415 18.1622 43.2244 16.664C44.7268 15.1461 46.5609 14.3871 48.7268 14.3871C50.8926 14.3871 52.7267 15.1461 54.2292 16.664C55.7316 18.1819 56.4828 20.0251 56.4828 22.1935C56.4828 24.3817 55.7316 26.2348 54.2292 27.7527ZM45.8878 25.121C46.6487 25.8898 47.5951 26.2742 48.7268 26.2742C49.8585 26.2742 50.8048 25.8898 51.5658 25.121C52.3268 24.3521 52.7072 23.3763 52.7072 22.1935C52.7072 21.0108 52.3268 20.0349 51.5658 19.2661C50.8048 18.4973 49.8585 18.1129 48.7268 18.1129C47.5951 18.1129 46.6487 18.4973 45.8878 19.2661C45.1463 20.0547 44.7756 21.0305 44.7756 22.1935C44.7756 23.3566 45.1463 24.3324 45.8878 25.121Z" fill="#1C1C1F"/>
<path d="M71.3867 23.9086L73.8745 14.8011H77.8842L73.2306 29.586H69.6306L66.9379 20.6263L64.2453 29.586H60.6453L55.9917 14.8011H60.0014L62.4892 23.879L65.1526 14.8011H68.7233L71.3867 23.9086Z" fill="#1C1C1F"/>
<path d="M82.5241 29.586H78.7485V8H82.5241V29.586Z" fill="#1C1C1F"/>
<path d="M97.2773 27.7527C95.7944 29.2509 93.9602 30 91.7749 30C89.5895 30 87.7554 29.2509 86.2725 27.7527C84.7896 26.2545 84.0481 24.4014 84.0481 22.1935C84.0481 20.0054 84.7896 18.1622 86.2725 16.664C87.7749 15.1461 89.609 14.3871 91.7749 14.3871C93.9407 14.3871 95.7748 15.1461 97.2773 16.664C98.7797 18.1819 99.5309 20.0251 99.5309 22.1935C99.5309 24.3817 98.7797 26.2348 97.2773 27.7527ZM88.9359 25.121C89.6968 25.8898 90.6432 26.2742 91.7749 26.2742C92.9066 26.2742 93.8529 25.8898 94.6139 25.121C95.3749 24.3521 95.7553 23.3763 95.7553 22.1935C95.7553 21.0108 95.3749 20.0349 94.6139 19.2661C93.8529 18.4973 92.9066 18.1129 91.7749 18.1129C90.6432 18.1129 89.6968 18.4973 88.9359 19.2661C88.1944 20.0547 87.8237 21.0305 87.8237 22.1935C87.8237 23.3566 88.1944 24.3324 88.9359 25.121Z" fill="#1C1C1F"/>
<path d="M112.138 16.5457V14.8011H115.914V29.586H112.138V27.8414C111.006 29.2805 109.416 30 107.367 30C105.416 30 103.738 29.2509 102.333 27.7527C100.948 26.2348 100.255 24.3817 100.255 22.1935C100.255 20.0251 100.948 18.1819 102.333 16.664C103.738 15.1461 105.416 14.3871 107.367 14.3871C109.416 14.3871 111.006 15.1066 112.138 16.5457ZM105.172 25.2097C105.933 25.9785 106.899 26.3629 108.07 26.3629C109.241 26.3629 110.206 25.9785 110.967 25.2097C111.748 24.4211 112.138 23.4158 112.138 22.1935C112.138 20.9713 111.748 19.9758 110.967 19.207C110.206 18.4185 109.241 18.0242 108.07 18.0242C106.899 18.0242 105.933 18.4185 105.172 19.207C104.411 19.9758 104.031 20.9713 104.031 22.1935C104.031 23.4158 104.411 24.4211 105.172 25.2097Z" fill="#1C1C1F"/>
<path d="M129.259 16.5457V8.8871H133.035V29.586H129.259V27.8414C128.147 29.2805 126.567 30 124.518 30C122.547 30 120.859 29.2509 119.454 27.7527C118.069 26.2348 117.376 24.3817 117.376 22.1935C117.376 20.0251 118.069 18.1819 119.454 16.664C120.859 15.1461 122.547 14.3871 124.518 14.3871C126.567 14.3871 128.147 15.1066 129.259 16.5457ZM122.293 25.2097C123.093 25.9785 124.069 26.3629 125.22 26.3629C126.391 26.3629 127.357 25.9785 128.118 25.2097C128.879 24.4211 129.259 23.4158 129.259 22.1935C129.259 20.9713 128.879 19.9758 128.118 19.207C127.357 18.4185 126.391 18.0242 125.22 18.0242C124.05 18.0242 123.074 18.4185 122.293 19.207C121.533 19.9758 121.152 20.9713 121.152 22.1935C121.152 23.4158 121.533 24.4211 122.293 25.2097Z" fill="#1C1C1F"/>
<path d="M140 27.457C140 28.147 139.756 28.7384 139.268 29.2312C138.78 29.724 138.195 29.9704 137.512 29.9704C136.829 29.9704 136.244 29.724 135.756 29.2312C135.268 28.7384 135.024 28.147 135.024 27.457C135.024 26.767 135.268 26.1756 135.756 25.6828C136.244 25.19 136.829 24.9435 137.512 24.9435C138.195 24.9435 138.78 25.19 139.268 25.6828C139.756 26.1756 140 26.767 140 27.457Z" fill="#1C1C1F"/>
<path fill-rule="evenodd" clip-rule="evenodd" d="M14.2083 16.4667C14.2083 11.7592 11.8277 7.59694 8.18269 5.07455C5.55468 7.16464 3.875 10.3566 3.875 13.9333C3.875 20.2294 9.07969 25.3333 15.5 25.3333C21.9203 25.3333 27.125 20.2294 27.125 13.9333C27.125 10.3566 25.4453 7.16464 22.8173 5.07455C19.1723 7.59694 16.7917 11.7592 16.7917 16.4667V18.1133H14.2083V16.4667ZM15.5 10.1222C16.5883 7.56831 18.3138 5.3406 20.4817 3.63016C18.9718 2.92686 17.2827 2.53333 15.5 2.53333C13.7173 2.53333 12.0282 2.92686 10.5183 3.63016C12.6862 5.34061 14.4117 7.56831 15.5 10.1222ZM22.9021 2.03787C20.7464 0.745073 18.2119 0 15.5 0C12.7881 0 10.2536 0.745073 8.09785 2.03787C5.69652 0.739072 2.93627 0 0 0V2.53333C2.06852 2.53333 4.0338 2.96681 5.80653 3.74618C3.02847 6.28937 1.29167 9.91245 1.29167 13.9333V19C1.29167 29.4934 9.96615 38 20.6667 38H29.7083V37.755L29.7314 37.755V14.9467L29.722 14.9726L29.7156 14.9903L29.7083 15.01V13.9333C29.7083 9.91245 27.9715 6.28937 25.1935 3.74618C26.9662 2.96681 28.9315 2.53333 31 2.53333V0C28.0637 0 25.3035 0.739072 22.9021 2.03787ZM27.125 34.9833V21.9465C24.88 25.0728 21.3567 27.2529 17.3004 27.7559C19.2295 31.4595 22.8291 34.1871 27.125 34.9833ZM21.258 35.4667H20.6667C12.5933 35.4667 5.8506 29.8793 4.24037 22.4326C6.64562 25.4923 10.3188 27.5443 14.4884 27.8319C15.8618 31.0285 18.2503 33.7028 21.258 35.4667ZM11.625 13.9333C11.625 14.9827 10.7576 15.8333 9.6875 15.8333C8.61745 15.8333 7.75 14.9827 7.75 13.9333C7.75 12.884 8.61745 12.0333 9.6875 12.0333C10.7576 12.0333 11.625 12.884 11.625 13.9333ZM21.3125 15.8333C22.3826 15.8333 23.25 14.9827 23.25 13.9333C23.25 12.884 22.3826 12.0333 21.3125 12.0333C20.2424 12.0333 19.375 12.884 19.375 13.9333C19.375 14.9827 20.2424 15.8333 21.3125 15.8333Z" fill="#1C1C1F"/>
</svg>
