<svg width="26" height="32" viewBox="0 0 26 32" fill="none" xmlns="http://www.w3.org/2000/svg">
<g clip-path="url(#clip0_2610_2)">
<rect width="26" height="32" fill="none"/>
<path fill-rule="evenodd" clip-rule="evenodd" d="M11.9167 13.8667C11.9167 9.90246 9.92003 6.39742 6.8629 4.2733C4.65876 6.03338 3.25 8.72137 3.25 11.7333C3.25 17.0353 7.61522 21.3333 13 21.3333C18.3848 21.3333 22.75 17.0353 22.75 11.7333C22.75 8.72137 21.3412 6.03338 19.1371 4.2733C16.08 6.39742 14.0833 9.90246 14.0833 13.8667V15.2533H11.9167V13.8667ZM13 8.52395C13.9128 6.37331 15.36 4.49735 17.1782 3.05698C15.9118 2.46472 14.4952 2.13333 13 2.13333C11.5048 2.13333 10.0882 2.46472 8.82184 3.05698C10.64 4.49735 12.0872 6.37331 13 8.52395ZM19.2083 1.7161C17.4002 0.62743 15.2745 0 13 0C10.7255 0 8.5998 0.62743 6.79175 1.7161C4.77773 0.622377 2.46268 0 0 0V2.13333C1.73489 2.13333 3.38319 2.49837 4.87 3.15468C2.54001 5.29631 1.08333 8.34733 1.08333 11.7333V16C1.08333 24.8366 8.35871 32 17.3333 32H24.9167V31.7937L24.936 31.7937V12.5867L24.9281 12.6085L24.9227 12.6234L24.9167 12.64V11.7333C24.9167 8.34733 23.46 5.29631 21.13 3.15468C22.6168 2.49837 24.2651 2.13333 26 2.13333V0C23.5373 0 21.2223 0.622377 19.2083 1.7161ZM22.75 29.4596V18.4812C20.8671 21.1139 17.9121 22.9498 14.51 23.3734C16.128 26.4922 19.147 28.7892 22.75 29.4596ZM17.8293 29.8667H17.3333C10.5621 29.8667 4.90695 25.1615 3.55644 18.8906C5.57375 21.4672 8.65447 23.1952 12.1516 23.4374C13.3035 26.1293 15.3067 28.3813 17.8293 29.8667ZM9.75 11.7333C9.75 12.617 9.02246 13.3333 8.125 13.3333C7.22754 13.3333 6.5 12.617 6.5 11.7333C6.5 10.8497 7.22754 10.1333 8.125 10.1333C9.02246 10.1333 9.75 10.8497 9.75 11.7333ZM17.875 13.3333C18.7725 13.3333 19.5 12.617 19.5 11.7333C19.5 10.8497 18.7725 10.1333 17.875 10.1333C16.9775 10.1333 16.25 10.8497 16.25 11.7333C16.25 12.617 16.9775 13.3333 17.875 13.3333Z" fill="#1C1C1F"/>
</g>
<defs>
<clipPath id="clip0_2610_2">
<rect width="26" height="32" fill="white"/>
</clipPath>
</defs>
</svg>
